<?xml version="1.0" encoding="utf-8"?>
<!-- Generator: Adobe Illustrator 24.1.0, SVG Export Plug-In . SVG Version: 6.00 Build 0)  -->
<svg version="1.1" id="Capa_1" xmlns="http://www.w3.org/2000/svg" xmlns:xlink="http://www.w3.org/1999/xlink" x="0px" y="0px"
	 viewBox="0 0 2920.7 1733.99" style="enable-background:new 0 0 2920.7 1733.99;" xml:space="preserve">
<style type="text/css">
	.st0{fill:#CC7200;}
	.st1{fill:#FDEDDF;}
	.st2{fill:#A44900;}
	.st3{fill:#EA6B48;}
	.st4{fill:#D14E48;}
	.st5{fill:#5C301D;}
	.st6{fill:#ECBB93;}
	.st7{fill:#4C2617;}
	.st8{fill:#6D3927;}
	.st9{fill:#BA513C;}
	.st10{fill:#300D04;}
	.st11{fill:#6C1712;}
	.st12{fill:#5C0F8B;}
	.st13{opacity:0.39;clip-path:url(#SVGID_2_);}
	.st14{opacity:0.7;fill:#3C0B68;}
	.st15{fill:#BB744C;}
	.st16{opacity:0.44;fill:#A3765B;}
	.st17{fill:#441F11;}
	.st18{fill:#D9C6B1;}
	.st19{fill:#814C34;}
	.st20{fill:#492316;}
	.st21{fill:#F8F4EB;}
	.st22{fill:#DCDAD5;}
	.st23{fill:#FFFFFF;}
</style>
<rect class="st12" width="2920.7" height="1733.99"/>
<g>
	<defs>
		<rect id="SVGID_1_" width="2920.7" height="1733.99"/>
	</defs>
	<clipPath id="SVGID_2_">
		<use xlink:href="#SVGID_1_"  style="overflow:visible;"/>
	</clipPath>
	<g class="st13">
		<g>
			<path class="st14" d="M2567.76,1392.69c0,0-86.45-93.57-145.74-132.67c-59.29-39.1-91.84-36.35-89-62.55
				c2.85-26.2,17.01-79.87,87.04-192.38c70.02-112.51,132.31-233.37,76.96-289.54c-42.83-43.46-131.35,10.33-178.84,60.1
				c-47.49,49.77-114.16,156.5-112.77,239.32c1.39,82.82,44.52,131.1,44.52,131.1s-96.26-89.99-121.73-171.33
				c-25.46-81.34-11.94-115.26,2.44-153.33c14.38-38.06,96.99-169.57,164.31-229.48c67.32-59.92,151.61-103.78,144.42-142
				c-7.19-38.22-90.52-43.02-149.91-8.6c-59.4,34.42-141.4,111.51-194.37,198.9c-52.97,87.39-70.94,137.14-55.73,191.93
				c-39.38-54.62-96.56-163.35-101.87-240.84c-5.3-77.49,15.65-134.25,67.81-175.06c52.17-40.81,293.57-171.89,341.48-192.2
				c47.91-20.3,64.65-30.27,60.33-49.2c-4.32-18.92-67.74-28.42-144.92-1.06c-77.18,27.37-177.33,82.97-230.93,126.23
				c-53.59,43.26-73.75,87.36-82.15,113.11c-24.44-76.57,5.4-193.82,27.94-275.92c22.54-82.1,92.64-232.85,118.87-272.33
				c26.22-39.47,84.19-71.44,115.23-79.66c31.04-8.22,184.73-18.49,243.56-23.69c58.83-5.2,147.55,20.47,176.99,77.68
				c48.04,93.38,62.36,235.99,62.36,235.99S2757.9-71,2882.88-103.42c124.98-32.42,223.82,27.21,320.15,126.96
				c96.32,99.75,81.7,318.85,78.9,397.1c-2.8,78.25-65.93,286.68-65.93,286.68s-33.29-117.83-112.85-214.4
				c-79.56-96.57-151.51-159.18-200.44-176.66c-48.92-17.49-61.74,17.74-50.61,36.24c11.13,18.51,51.31,60.46,116.03,116.67
				c64.72,56.21,193.39,194.45,209.67,279.41c14.2,64.06-5.51,128.11-22.89,161.78c-17.38,33.67-122.85,126.66-192.34,193.52
				c13.59-61.04-36.13-227.81-68.59-298.1c-32.46-70.29-70.55-125.26-107.93-117.43c-37.37,7.82-14.65,77.93,15.42,139.17
				c30.06,61.24,82.38,193.41,90.06,266.81c5.77,29.61-3.03,61.7-13.91,72.89c-10.88,11.19-74.92,38.53-137.11,70.23
				c-62.19,31.7-114.38,59.37-139.12,88.76C2576.64,1355.6,2567.76,1392.69,2567.76,1392.69z"/>
			<g>
				<path class="st14" d="M2583.37,1091.18c16.54-105.89,45.46-501.37,55.42-585.8c17.52-148.54,50.68-349.66,76.13-468.72
					c-13.85,22.56-20.87,38.58-20.87,38.58s-1.37-13.59-4.66-35.08c-10.33,63.32-30.51,188.59-52.03,330.88
					C2609.74,553.74,2585.91,986.15,2583.37,1091.18z"/>
				<path class="st14" d="M2185.29,108.44c98.86-56.55,401.2-21.85,496.27,0.4c7.93-5.89,6.05-13.11,6.05-13.11
					S2318.07,25.99,2185.29,108.44z"/>
				<path class="st14" d="M2143.07,414.49c115-94.69,427.71-181.34,524.09-196.96c5.08-8.47,5.44-20.99,5.44-20.99
					S2296.34,270.56,2143.07,414.49z"/>
				<path class="st14" d="M2690.18,133.45c0,0,223.63,28.1,404.65,208.71c-30.15-57.67-220.85-192.98-401.69-225.6
					C2685.41,124.81,2690.18,133.45,2690.18,133.45z"/>
				<path class="st14" d="M2649.95,367.25c0,0,258.92,149.41,372.06,305.46c-51.62-104.6-277.06-274.4-369.1-322.35
					C2645.18,358.61,2649.95,367.25,2649.95,367.25z"/>
				<path class="st14" d="M2634.53,450.09c-54.74,7.64-280.21,133.87-390.44,316.03c54.03-70.37,173.54-204.46,386.49-294.1
					C2633.35,461.6,2634.53,450.09,2634.53,450.09z"/>
			</g>
		</g>
		<path class="st14" d="M2333.43,1026.68c-71.75-16.6-145.83,77.73-170.26,183.31c-31.01,134.03,18.74,320.09,34.13,372.21
			c-0.12,7.48,0.02,14.97,0.49,22.48c0.9,14.3,2.91,28.53,6.08,42.5c1.5,6.64,3.2,13.6,5.69,20.18
			c-9.97-3.24-74.95-26.47-88.86-31.88c-7.45-16.57-16.23-32.73-22.91-49.41c-2.37-5.92-4.61-11.88-6.76-17.87
			c14.61-58.36,58.87-250.99,38.57-368.61c-15.08-87.34-80.75-159.2-144.56-148.19c-63.81,11.01-99.71,111.65-83.5,205.54
			c21.29,123.32,148.82,284.53,178.72,320.98c0.34,0.86,0.66,1.72,1,2.58c6.15,15.43,12.97,32.33,21.61,47.94
			c-21.32-8.51-149.8-64.02-180.76-77.79c-9.96-15.64-22.55-29.8-33.21-44.91c-0.51-0.72-0.99-1.45-1.49-2.17
			c-0.8-59.07-7.55-234.96-58.25-333.79c-38.45-74.95-124.37-122.21-174.59-96.45c-50.23,25.76-50.57,125.35-9.24,205.92
			c52.3,101.95,190.41,206.94,230.86,236.27c5.13,7.44,10.58,14.98,16.52,22.08c-14.38-6.36-84.88-33.84-153.81-60.1
			c-50.11-43.62-182.49-153.08-282.69-184.25c-78.72-24.49-164.53-5.37-180.55,46.14c-16.03,51.52,53.64,118.99,138.26,145.31
			c103.95,32.33,271.23,18.79,326.77,13.04c55.7,22.9,140.81,58.65,137.27,58.8c-10.82,0.44-29.72,2.85-40.45,4.32
			c-1.54,0.21-3.07,0.45-4.6,0.67c-59.09-4.75-220.59-13.49-318.21,22.22c-75.66,27.68-131.32,92.43-113.65,140.73
			c17.67,48.3,111.74,59.21,192.77,28.64c133.29-50.28,228.79-151.71,254.65-181.27c16.06-2.68,32.26-5.61,48.34-7.78
			c4.9,2.25,9.81,4.5,14.7,6.76c31.18,14.4,150.43,68.26,166.78,75.21c-17.26,2.54-34.38,6.64-51.13,11.15
			c-69.5,7.3-250.93,32.06-351.31,98.61c-78.62,52.13-160.31,163.5-124.53,217.47c35.78,53.97,185.32,23.58,269.84-32.47
			c113.09-74.98,211.86-246.07,230.84-280.19c15.44-2.18,32.38-3.17,53.72-3.1c10.72,4.41,84.95,32.9,93.25,35.87
			c-6.16,1.82-12.17,4.54-17.56,6.87c-11.65,5.03-22.85,11.11-33.6,17.83c-49.53,26.48-188.46,112.21-315.5,297.21
			c-64.38,93.75-55.79,191.85,7.57,229.38c63.36,37.53,149.66,5.07,211.97-100.12c78.85-133.11,106.58-354.54,113.14-418.23
			c7.79-4.77,15.84-9.1,24.07-13.11c8.73-4.25,19.29-7.5,26.96-13.81c1.2,0.42,11.1,3.5,25.41,7.86
			c-1.72,4.73-2.43,10.09-3.02,14.52c-0.53,3.94-0.75,7.93-0.73,11.93c-21.02,25.32-74.8,97.24-82.33,178.3
			c-5.86,63.12,15.35,176.39,61.46,180.68c46.11,4.28,89.65-58.53,95.95-126.38c8.38-90.29-51.4-212.55-64.27-237.65
			c0.13-2.18,0.34-4.36,0.63-6.53c0.51-3.88,1.75-7.79,2.66-11.72c34.25,10.39,84.1,25.2,108.11,31.17
			c42,10.43,611.38,137.24,621.33,140.34c40.11,12.48,36.3-18.72,19.96-22.28c-9.22-2.01-581.71-134.26-619.17-143.1
			c-21.71-5.12-75.35-20.48-115.56-32.21c1.55-3.63,3.15-7.22,5.04-10.72c3.45-6.37,7.26-12.55,11.58-18.35
			c36.29-13.61,133.2-53.41,179.5-106.17c35.98-40.99,55.54-114.41,25.59-140.69c-29.95-26.28-112.19,39.35-150.87,83.42
			c-47.65,54.3-63.24,134.05-67.21,160.02c-3.62,5.29-6.84,10.83-9.5,16.68c-1.45,3.2-3.73,7.75-5.41,12.51
			c-20.94-6.13-36.23-10.68-37.78-11.18c-1.72-9.54-4.57-19-6.29-28.43c-2.85-15.6-4.31-31.45-4.25-47.31
			c0.01-1.51,0.04-3.03,0.07-4.54c28.14-36.02,160.37-210.64,192.84-350.97C2422.47,1140.42,2405.17,1043.28,2333.43,1026.68z"/>
		<path class="st14" d="M497.49-1476.08c0.03,0.04-0.05,0.1-0.07,0.15c66.21,117.81,122.1,241.38,172.64,367.2
			c44.63,111.09,85.66,223.43,128.13,335.27c-22.51,6.03-75.89,20.84-96.86,30.98c-26.9,13.01-134.89,50.78-204.81,135.16
			C385.53-473.37,332.53-360.9,350.22-365.7c32.64-8.86,281.68-147.09,350.17-240c10.47-14.21,98.14-128.62,103.9-151.75
			c10.35,27.13,20.79,54.23,31.41,81.27c16.04,40.85,32.45,81.57,49.16,122.16c-30.24,6.83-103.29,24.04-131.43,37.16
			c-35.89,16.72-167.56,93.68-255.54,211.02c-139.66,186.28-207.22,522.9-185.38,541.74c1.93,1.66,4.22,1.39,6.94-0.54
			c19-13.53,58.37-108.6,133.96-192.99c17.48-19.51,232.2-207.09,234.49-209.1c25.33-22.2,88.21-79.82,90.92-82.82
			c0.25-0.27,0.49-0.54,0.73-0.81c2.77-3.09,56.97-84.64,72.89-125.3c0.46-1.17,0.92-2.34,1.38-3.51c0.96-2.51,1.91-5.02,2.83-7.52
			c20.86-56.12,32.4-110.63,37.91-143.89c34.52,83.14,70.42,165.73,107.7,247.7c-20.05,7.9-94.51,37.71-121.35,54.84
			c-31.13,19.87-144.91,106.11-219.14,220.1c-117.83,180.94-168.12,479.19-148.39,491.9c6.53,4.21,16.9-15.62,33.63-47.76
			c18.96-36.42,99.52-157.07,111.21-169.99c0.56-0.62,1.12-1.24,1.69-1.86c6.67-7.36,99.45-105.73,112.65-119.57
			c1.65-1.73,3.3-3.46,4.96-5.2C817.29,97.82,908.21-0.51,910.51-3.5c0.21-0.27,7.68-10.43,7.77-10.56
			c23.3-33.13,40.69-71.47,53.59-108.71c0.37-1.06,0.74-2.12,1.1-3.18c0.78-2.3,1.55-4.6,2.3-6.89
			c19.49-59.32,28.05-114.86,30.97-141.3c4.55,9.97,9.07,19.96,13.66,29.91c27.4,59.42,55.53,118.48,84.32,177.21
			c-20.41,13.76-71.38,48.63-90.38,66.23c-23.99,22.23-110.76,113.84-163.47,217.64C766.73,381.62,746,620.55,762.92,625.76
			c0.37,0.12,0.75,0.15,1.14,0.09c0.39-0.05,0.78-0.19,1.19-0.4c0.81-0.43,1.65-1.19,2.53-2.24c2.2-2.64,4.65-7.17,7.46-13.27
			c1.68-3.66,3.5-7.89,5.46-12.62c3.93-9.46,147.37-257.54,152.11-264.09c4.74-6.55,36.66-50.68,47.89-66.26
			c2.5-3.46,4.99-6.92,7.48-10.38c1.24-1.73,2.49-3.46,3.73-5.18c17.39-24.17,95.15-161.18,103.13-192.51
			c0.23-0.9,0.46-1.79,0.68-2.68c0.48-1.94,0.95-3.86,1.4-5.78c9.7-40.69,13.6-77.78,15.02-101.31
			c28.8,58.43,58.24,116.53,88.4,174.21c-12.01,11.91-56,55.93-70.8,76.01c-17.2,23.34-77.75,117.59-107.45,217.02
			c-47.15,157.84-29.71,370.49-14.51,372.33c10.74,1.3,106.35-293.03,108.93-298.48c1.27-2.68,22.37-47.25,30.7-64.96
			c0.54-1.15,1.08-2.3,1.62-3.45c10.95-23.29,21.67-46.28,31.43-67.63c1.23-2.69,5.99-14.26,7-16.98c0.09-0.25,0.19-0.5,0.28-0.75
			c1.03-2.79,2.01-5.6,2.95-8.42c0.04-0.11,14.87-60.76,17.07-89.5c0.06-0.81,0.13-1.63,0.19-2.44c0.13-1.78,0.24-3.55,0.35-5.31
			c2.57-41.69-0.41-78.25-2.89-98.16c7.65,14.58,15.31,29.15,23.04,43.68c28.37,53.31,57.32,106.27,86.82,158.87
			c-8.9,11.58-45.85,60.09-57.55,81.85c-13.33,24.8-59.01,124.76-75.84,229.43c-26.72,166.15,11.54,388.16,25.68,389.74
			c3.43,0.38,7.31-30.82,7.6-34.16c0.14-1.67,37.98-206.44,56.19-264.86c1.07-3.44,2.15-6.9,3.24-10.39
			c15.24-48.86,32.06-102.58,45.88-148.99c0.85-2.85,2.52-9.11,2.59-9.36c0.73-2.84,1.41-5.7,2.06-8.57
			c0.06-0.26,0.12-0.52,0.18-0.78c0.65-2.95,9.1-72.74,8.11-102.84c-0.03-0.87-0.05-1.74-0.09-2.61c-0.07-1.84-0.15-3.68-0.23-5.5
			c-2.09-45.65-9.16-85.29-13.5-105.32c7.45,13.26,14.91,26.52,22.44,39.74c28.06,49.27,56.2,99.22,86.39,147.25
			c-7.45,15.67-31.55,66.91-38.68,89.22c-8.47,26.51-35.74,131.27-37.83,232.91c-3.3,161.35,55.44,357.71,67.7,355.51
			c3.25-0.58,3.4-11.23,2.68-29.1c-0.89-21.95-3.1-54.82-2.55-93.3c0.2-13.72,19.71-175.34,22.35-193.2
			c6.85-46.44,22.02-158.11,22.03-158.36c0.21-2.92,0.53-8.96,0.53-9.06c1.38-30.39-1.3-60.92-5.68-88.65
			c-0.13-0.79-0.25-1.58-0.37-2.37c-0.28-1.71-0.56-3.4-0.85-5.09c-6.06-35.46-14.65-65.98-20.82-85.12
			c6.63,10.33,13.38,20.54,20.24,30.64c-0.53-0.22-0.84-0.34-0.84-0.34c3.94,14.28,50.75,119.5,50.78,119.55
			c1.43,2.58,2.9,5.18,4.39,7.78c0.36,0.62,0.7,1.24,1.06,1.87c0.54,0.93,1.11,1.87,1.65,2.8c4.43,7.56,58.87,79.69,60.18,81.04
			c1.53,1.59,52.24,47.79,71.45,64.71c12.8,11.27,256.15,242.77,275.74,269.18c19.59,26.41,33.07,46.02,40.74,51.92
			c2.19,1.69,3.91,2.26,5.16,1.54c0.26-0.15,0.48-0.41,0.68-0.71c10.26-15.77-72.75-233.43-192.05-372.17
			c-76.59-89.08-181.18-160.35-209.26-177.1c-21.06-12.57-72.71-34.64-97.21-44.89c0.53-1.41,0.48-3.17-0.53-5.09
			c-9.04-17.14-18.48-33.85-28.07-50.64c-4.45-7.79-8.89-15.58-13.33-23.37c13.68,11.88,35.45,29.16,61.85,45.18
			c0.04,0.02,0.08,0.05,0.11,0.07c1.84,1.12,3.71,2.22,5.59,3.32c0.45,0.26,0.89,0.53,1.35,0.8c0.68,0.39,1.37,0.78,2.06,1.17
			c5.54,3.17,28.64,14.71,30.49,15.54c0.58,0.26,129.3,31.71,141.47,33.94c9.13,1.68,118.17,22.05,120.18,22.45
			c8.03,1.61,29.63,6.48,31.48,6.99c32.1,8.84,60.29,20.28,82.18,29.71c21.89,9.43,37.49,16.86,44.43,17.66
			c1.98,0.23,3.26-0.08,3.77-1.04c0.11-0.2,0.15-0.46,0.16-0.73c0.56-14.36-131.2-123.29-256.4-166.34
			c-80.38-27.64-171.57-32.54-195.18-32.3c-19.22,0.19-64.95,7.41-81.27,10.08c-24.9-43.67-49.69-87.38-74.26-131.22
			c16.3,11.7,41.62,28.25,71.58,42.98c1.47,0.72,2.94,1.44,4.44,2.16c0.7,0.33,1.4,0.66,2.11,1c2.08,0.98,4.18,1.96,6.3,2.92h0
			c22.73,10.29,47.72,19.14,73.28,23.87c0.11,0.02,0.22,0.04,0.33,0.06c2.68,0.49,5.36,0.94,8.05,1.34c0.24,0.04,0.48,0.07,0.72,0.1
			c2.62,0.38,5.25,0.72,7.88,1c0.24,0.03,0.48,0.05,0.72,0.07c2.68,0.28,5.37,0.52,8.05,0.7c15.66,1.02,32.24,1.99,49.2,2.93
			c27.14,1.5,55.26,2.9,82.14,4.25c3.36,0.17,6.7,0.34,10.02,0.5c23.22,1.16,248.26,38.04,254.98,40.08
			c1.84,0.56,15.58,4.38,19.13,4.92c4.6,0.69,7.33,0.3,7.92-1.6c4.47-14.29-162.64-129.37-310.31-161.69
			c-93.02-20.36-193.94-11.03-219.8-6.77c-20.36,3.35-66.76,18.92-85.57,25.38c-26.34-47.17-52.36-94.53-77.91-142.22
			c17.11,10.35,48.17,27.32,85.84,41.28c1.61,0.6,3.23,1.2,4.87,1.78c0.76,0.27,1.53,0.54,2.3,0.81
			c26.66,9.42,111.76,20.72,114.66,20.64c6.78-0.18,33.24-0.99,36.86-1.11c7.22-0.24,64.68-2.38,72.12-2.68
			c3.72-0.15,63.51-2.55,70.37-2.82c1.72-0.07,3.42-0.13,5.12-0.2c2.93-0.11,45.91-1.66,47.35-1.71
			c11.52-0.37,22.04-0.65,31.24-0.82c2.3-0.04,4.52-0.08,6.66-0.11c10.67-0.14,19.18-0.09,24.94,0.2
			c17.09,0.88,66.16,7.15,70.88,7.93c4.73,0.78,22.53,4.03,26.68,4.84c8.3,1.62,29.75,6.06,32.87,6.69
			c20.28,4.11,32.59,6.02,33.87,1.73c4.44-14.97-179.35-116.27-339.83-135.2c-101.09-11.93-209.9,7.11-237.72,13.89
			c-22.92,5.58-76.26,27.46-94.36,35c-13.46-25.21-26.83-50.48-39.99-75.91c-21.99-42.48-43.57-85.19-64.84-128.07
			c17.47,11.69,54.56,34.18,100.67,52.73c1.8,0.73,3.62,1.45,5.45,2.17c0.85,0.33,1.71,0.66,2.57,0.99
			c29.83,11.46,97.77,24.85,97.91,24.86c3.28,0.36,17.2,1.39,20.43,1.51c0.29,0.01,0.58,0.02,0.87,0.03
			c3.29,0.11,45.39-0.07,64.03-0.3c2.07-0.03,72.55-1.12,77.26-1.21c3.2-0.06,6.39-0.11,9.57-0.17
			c1.16-0.02,351.6,26.99,354.45,27.57c2.35,0.47,17.06,2.45,19.1,2.27c0.68-0.06,1.29-0.16,1.84-0.29c0.55-0.13,1.02-0.3,1.43-0.51
			c0.82-0.42,1.35-1,1.6-1.75c5.6-17.01-198.71-137.64-379.75-163.42c-114.05-16.24-238.01,2.75-269.79,9.79
			c-27.53,6.1-93.85,31.96-111.1,38.76c-34.54-69.78-68.11-140.07-100.7-210.83c22.46,15.47,222.39,103.3,330.27,104.94
			c4.71,0.07,120.48-3.99,123.47-4.1c4.83-0.18,105.22-3.74,109.37-3.87c4.15-0.13,64.61-1.64,66.18-1.66
			c3.13-0.04,33.32-0.01,35.4,0.05c4.15,0.11,227.84,51.52,230.35,35.32c3.57-22.93-253.8-181.1-467.94-212.41
			c-134.9-19.72-275.24,8-310.84,18.02c-30.27,8.52-100.6,43.28-120.98,53.49c-10.18-22.19-20.3-44.41-30.28-66.69
			c-26.1-58.23-51.52-116.78-76.31-175.58c27.8,18.42,157.54,80.44,157.54,80.44c37.93,13.84,78.61,24.23,118.41,26.41
			c0.17,0.01,22.16,0.37,26.17,0.2c0.36-0.02,190.35-20.86,195.44-21.47c10.19-1.22,93.39-11.06,96.12-11.37
			c24.38-2.81,155.48-11.23,167.18-10.43c81.9,5.55,151.11,25.96,183.22,29.69c1.53,0.18,2.97,0.32,4.33,0.42
			c4.08,0.3,7.37,0.22,9.81-0.32c3.26-0.71,5-2.25,5.05-4.83c0.65-29.21-294.7-208.08-526.72-230.4
			c-146.16-14.06-291.6,32.16-328.09,47.66c-29.05,12.34-92.3,56.5-116.87,73.99c-32.98-78.78-64.8-158.02-95.34-237.7
			c-2.69-7.02-5.37-14.05-8.04-21.07c20.05,10.99,58.11,29.77,102.86,43.89c1.85,0.59,3.72,1.17,5.6,1.74
			c0.86,0.26,1.73,0.52,2.59,0.77c30.45,9.07,103.14,16.08,106.27,15.99c0.28-0.01,0.57-0.02,0.85-0.03
			c3.04-0.1,37.23-3.65,46.58-4.84c1.87-0.24,75.27-9.99,81.13-10.79c5.4-0.74,190.67-24.53,192.34-24.66
			c3.34-0.25,186.82,23.32,187.63,10.01c1.15-18.85-217.36-126.12-391.68-134.19c-109.81-5.09-220.44,28.67-248.28,39.66
			c-22.36,8.82-71.63,39.44-90.18,51.17c-50.9-134.03-99.55-268.87-154.79-401.36c-45.51-109.13-100.3-229.13-160.41-330.91
			C474.47-1518.3,478.15-1500.2,497.49-1476.08z"/>
		<g>
			<path class="st14" d="M598.82,847.42c0,0,107.4,64.66,283.61-28.97c176.21-93.63,224.84-198.53,262.62-306.34
				c-94.11,9.83-247.2,31.75-356.37,56.48c-109.17,24.74-173.67,102.17-239.02,240.83c28.52-114.57,22.92-226.49-53.26-331.03
				c-76.18-104.54-296.59-201.59-317.98-259.84c-7.57,159.13,53.74,385.3,150.31,495.11c85,97.61,181.77,121.91,181.77,121.91
				s-273.95-87.26-457.53-16.15c-183.58,71.11-366.76,259.52-422.88,268.27c97.09,12.41,206.99,93.1,359.59,64.98
				c152.6-28.12,335.38-93.54,499.3-256.74c-161.39,171.74-217.06,290.3-260.21,481.54c-43.15,191.24-5.56,409.27,24.62,516.14
				c23.77-47.42,101-137.7,162.79-241.76c61.8-104.06,161.43-323.42,174.48-540.4c7.09-69.21-25.62-184.63-25.62-184.63
				s76.71,295.5,191.04,417.04c114.33,121.54,293.69,212.43,398.03,221.77c-37.1-67.64-30.7-153.65-84.12-310.52
				c-53.42-156.87-155.26-246.31-269.35-316.69C686.57,868.05,598.82,847.42,598.82,847.42z"/>
			<path class="st14" d="M537.78,849.25c0,0-134.69,413.35-236.7,793"/>
			<path class="st14" d="M537.78,849.25c0,0,81.31,30.91,153.37,149.83c72.06,118.91,258.16,335.38,297.35,380.75"/>
			<path class="st14" d="M-207.13,1054.18c177.96-31.43,515.84-141.31,515.84-141.31l229.06-63.61"/>
			<path class="st14" d="M1070.15,576.8c-65.47,47.67-182.6,115.34-316.11,157.14c-133.51,41.8-216.26,115.31-216.26,115.31"/>
			<path class="st14" d="M266.62,366.67c0,0,122.4,218.73,175.08,320.55c52.68,101.82,96.08,162.03,96.08,162.03"/>
			<path class="st14" d="M522.84,843.18c3.35-8.25,12.76-12.22,21.01-8.87c8.25,3.35,12.23,12.76,8.87,21.01
				c-3.35,8.25-12.76,12.22-21.01,8.87C523.46,860.84,519.48,851.43,522.84,843.18z"/>
		</g>
	</g>
</g>
</svg>
