<?xml version="1.0" encoding="utf-8"?>
<!-- Generator: Adobe Illustrator 24.1.0, SVG Export Plug-In . SVG Version: 6.00 Build 0)  -->
<svg version="1.1" id="Capa_1" xmlns="http://www.w3.org/2000/svg" xmlns:xlink="http://www.w3.org/1999/xlink" x="0px" y="0px"
	 viewBox="0 0 1791.85 1606.38" style="enable-background:new 0 0 1791.85 1606.38;" xml:space="preserve">
<style type="text/css">
	.st0{fill:#CC7200;}
	.st1{fill:#FDEDDF;}
	.st2{fill:#A44900;}
	.st3{fill:#EA6B48;}
	.st4{fill:#D14E48;}
	.st5{fill:#5C301D;}
	.st6{fill:#ECBB93;}
	.st7{fill:#4C2617;}
	.st8{fill:#6D3927;}
	.st9{fill:#BA513C;}
	.st10{fill:#300D04;}
	.st11{fill:#6C1712;}
	.st12{fill:#5C0F8B;}
	.st13{opacity:0.39;clip-path:url(#SVGID_2_);}
	.st14{opacity:0.7;fill:#3C0B68;}
	.st15{fill:#BB744C;}
	.st16{opacity:0.44;fill:#A3765B;}
	.st17{fill:#441F11;}
	.st18{fill:#D9C6B1;}
	.st19{fill:#814C34;}
	.st20{fill:#492316;}
	.st21{fill:#F8F4EB;}
	.st22{fill:#DCDAD5;}
	.st23{fill:#FFFFFF;}
</style>
<g>
	<path class="st0" d="M1391.54,1442.03c-27.43-71.24-64.28-155.9-97.86-221.87c-29.02-57.01-81.89-104.38-106.89-164.06
		c-27.42-65.44-24.22-106.11-24.22-106.11L818.74,634.44L667.01,495.06c0,0-33.84,11.7-82.38,47.59
		c-57.73,42.37-135.93,118.23-203.61,247.51c-13.48,25.99-24.15,52.28-32.08,78.22c-17.82,58.11-22.48,116.08-18.18,173.37
		c12.62,168.13,73.05,322.84,123.59,482.66c7.72,24.41,16.15,49.63,26.2,73.96h928.69
		C1419.24,1547.53,1410.47,1491.2,1391.54,1442.03z"/>
	<path class="st1" d="M381.07,790.07c-13.47,26.03-24.22,52.34-32.2,78.35c70.75-67.81,146.3,20.41,310.9,40.94
		c164.77,20.4,220.7-132.78,220.7-132.78s-29.17-71.03-61.69-142.12L666.92,495.04c0,0-33.77,11.79-82.32,47.65
		C526.96,585.03,448.63,660.88,381.07,790.07z"/>
	<path class="st2" d="M360.15,1204.79c30.9,19.53,62.66,34.98,94.42,46.56c63.09,23.18,126.18,31.33,183.26,27.47
		c144.85-9.66,319.31-78.75,500.21-220.38c-8.58-2.58-16.52-5.15-23.82-7.72c-161.59,114.38-315.88,171.03-446.13,179.83
		c-57.08,3.86-120.17-4.29-183.26-27.47c-39.91-14.59-79.61-34.98-117.6-62.23C364.22,1156.51,361.22,1178.18,360.15,1204.79z"/>
	<g>
		<path class="st3" d="M1072.5,677.76c-168.49-325.45,51.56-165.76,65.56-158.74c0,0,66.85,34.35,110.95,87.94L1072.5,677.76z"/>
		<path class="st0" d="M516.27,363.99c0,0-251.17-171.15-502.35-106.69c0,0-64.46,384.36,271.18,541.16
			C620.74,955.25,516.27,363.99,516.27,363.99z"/>
		<path class="st0" d="M481.87,428.26l406.57-9.9c0,0,53.73-214.62-81.94-410.32c0,0-200.06,45.63-286.66,251.84
			c-2.85,6.75-5.55,13.66-8.25,20.86c-10.66,29.72-19.21,62.44-24.46,98.6c-0.6,3.3-1.05,6.45-1.35,9.76
			C484.12,401.7,482.77,414.75,481.87,428.26z"/>
		<path class="st2" d="M803.02,32.61c0,0-155.81,108.92-184.71,357.87l248.95,37.79C867.26,428.26,927.5,238.59,803.02,32.61z"/>
		<path class="st2" d="M428.1,430.67c0,0-144.48-114.1-371.2-82.24c0,0,6.67,293.41,253.4,375.65L428.1,430.67z"/>
		<path class="st0" d="M188.76,739.68c0,60.63,9.9,126.22,36.62,192.55c1.8,4.35,3.6,8.71,5.55,13.21
			c5.4,12.61,10.95,25.36,17.11,38.12c1.65,3.3,3.3,6.45,4.95,9.76c2.25,4.65,4.8,9.31,7.35,13.96
			c13.81,25.66,28.97,49.23,45.17,70.39c7.05,9.45,14.26,18.31,21.76,26.86c6.3,7.35,12.76,14.41,19.51,21.16
			c10.51,10.81,21.31,20.71,32.57,30.02c8.71,7.35,17.56,14.26,26.56,20.71h0.15c7.5,5.4,15.01,10.5,22.66,15.16
			c1.2,0.9,2.55,1.65,3.75,2.25c23.56,14.41,47.57,25.66,71.74,34.52c36.92,13.51,73.84,20.71,108.96,22.66c0.6,0,1.2,0.15,1.8,0.15
			c10.2,0.6,20.11,0.9,30.02,0.6c3.75-0.15,7.35-0.45,11.11-0.6c23.56-1.5,48.18-5.1,73.54-10.51
			c92.3-19.96,195.26-66.19,301.81-142.88h0.15c27.61-19.81,55.68-41.87,83.75-65.89c52.68-45.17,89.6-93.8,113.61-141.53l0.15-0.15
			c5.55-11.11,10.5-22.06,14.71-33.02c1.8-4.95,3.45-9.76,5.1-14.56c25.66-46.98,36.77-112.11,28.37-166.14
			c-0.75-3.9-1.5-7.8-2.25-11.56c-4.95-22.51-13.51-42.62-26.12-57.93c-4.95-6.15-10.2-12.01-15.76-17.56h-0.15
			c-0.45-0.75-0.9-1.05-1.5-1.65c-2.4-2.4-4.8-4.65-7.2-7.05c-3.9-3.6-7.8-7.21-11.71-10.51h-0.15c-6.15-5.4-12.16-10.2-18.16-14.86
			c-0.9-0.6-1.95-1.35-2.85-2.1c-5.7-4.2-11.26-8.25-16.51-11.71c-1.65-1.2-3.15-2.25-4.65-3.15c-0.15-0.15-0.45-0.3-0.6-0.45
			c-13.21-8.71-23.71-14.71-28.67-17.26c-0.45-0.3-0.9-0.6-1.35-0.75c-0.3-0.15-0.6-0.3-0.9-0.45c3.45,2.85,3.75,3.15,1.95,2.25
			c-0.75-0.75-1.65-1.65-2.4-2.4c-0.15-0.15-0.15-0.15-0.3-0.3c-8.71-9.01-18.16-19.21-28.97-31.37
			c-3.45-4.05-7.21-8.25-11.11-12.76c-3.3-3.75-6.6-7.65-10.21-11.86c-4.95-5.85-10.2-12.16-15.76-18.91
			c-3.75-4.35-7.5-9.01-11.41-13.81C999.5,354.57,938.87,315.25,898.8,295.59c-6.45-3.15-12.31-5.7-17.56-7.8
			c-18.61-7.8-29.57-10.21-29.57-10.21c-36.77-17.11-121.04-38.05-137.04-38.34c-12.22-0.22-85.69,0.37-94.39,8.77
			c-34.52,3.45-69.49,9.91-103.41,19.21c-36.92,9.91-72.79,23.41-105.66,40.37c-31.52,16.06-60.48,35.27-85.25,57.48l-0.15,0.3
			c-3.15,2.55-6,5.25-9.01,8.25c-9.75,9.31-18.61,19.06-26.71,29.42c-5.55,6.9-10.66,13.96-15.31,21.31c-1.8,2.85-3.6,5.85-5.4,8.86
			c-0.6,0.9-4.35,7.35-10.2,18.61c-16.96,33.47-51.03,109.41-64.54,206.21v0.15C191.01,684,188.76,711.31,188.76,739.68z"/>
		<path class="st1" d="M507.43,1131.42c-3.11,62.36,45.31,115.38,107.6,119.68c16.04,1.11,31.74,1.1,46.92,0.08
			c131.94-8.89,293.41-77,459.31-219.25c29.59-25.38,54.2-51.83,74.35-78.63c51.67-68.7,61.66-162.21,20-237.4
			c-18.12-32.72-45.87-62.85-88.3-79.62C1008.28,589.29,528.94,700.23,507.43,1131.42z"/>
		<path class="st4" d="M934.09,882.37c0.53,0.53,1.07,1.07,1.78,1.42c11.91,9.78,33.25,17.6,53.88,5.87
			c16.89-9.6,17.78-28.45,17.07-37.52c-0.18-3.02-0.54-4.98-0.54-4.98c-3.91-0.18-7.82-0.71-11.38-1.78
			c-6.05,1.6-10.85,1.24-15.29-1.07c-5.16-2.31-10.14-7.29-14.94-14.58c-11.92-9.96-17.96-20.98-17.96-20.98
			c1.78,7.11,2.67,13.87,3.02,20.09c0,0.18,0,0.18,0,0.18c3.91,12.8,4.62,22.58,2.13,29.52c-1.6,4.8-4.62,8.36-9.6,11.56
			C938.18,878.46,934.09,882.37,934.09,882.37z"/>
		<path class="st5" d="M893.72,879.35c0.71,0.36,12.8,6.4,27.92,6.4c4.45,0,9.43-0.53,14.23-1.96c1.6-0.53,3.38-1.24,4.98-1.96
			c6.93-3.02,16.54-8.36,20.45-19.92c1.78-5.16,2.31-11.2,1.6-18.14c4.09,4.27,8.18,7.65,12.45,9.6c4.62,2.13,8.89,3.02,13.16,3.02
			c6.05,0,11.56-1.6,16.54-3.56c0.71-0.18,1.24-0.54,1.78-0.71c23.47-9.6,26.85-32.54,27.03-33.61c0.35-2.85-1.42-5.34-4.27-5.69
			c-2.67-0.36-5.33,1.42-5.69,4.27c-0.18,0.89-3.2,19.38-22.23,26.32c-2.49,0.89-4.62,1.6-6.76,1.96
			c-6.05,1.6-10.85,1.24-15.29-1.07c-5.16-2.31-10.14-7.29-14.94-14.58c-7.11-10.14-13.87-25.07-20.63-44.81
			c-0.89-2.49-3.73-3.91-6.4-3.02c-0.89-0.18-1.96-0.18-2.85,0.36c-2.49,1.24-3.56,4.27-2.13,6.76c8,15.65,13.69,28.81,17.07,39.83
			c0,0.18,0,0.18,0,0.18c3.91,12.8,4.62,22.58,2.13,29.52c-1.6,4.8-4.62,8.36-9.6,11.56c-1.6,0.89-3.38,1.78-5.51,2.67
			c-17.96,8-38.23-2.31-38.41-2.49c-2.49-1.24-5.51-0.18-6.76,2.13C890.34,874.9,891.23,877.93,893.72,879.35z"/>
		<path class="st6" d="M1008.11,971.89c0,0-60.45,39.61-100.93,3.39c0,0-3.8-2.6-7.1,1.99c-3.29,4.6,24.63,29.86,56.7,22.96
			c32.07-6.9,49.94-19.15,52.95-23.62C1012.74,972.13,1012.05,969.54,1008.11,971.89z"/>
		<g>
			<path class="st5" d="M860.3,774.98c11.19,17.02,44.11,57.46,91.13,39.59c14.3-5.46,23.14-14.39,28.12-24.64
				c0.09-0.09,0.19-0.19,0.19-0.19c10.91-22.48,4.23-51.07-1.97-63.39c-2.16-4.51-7.05-6.96-12.04-6.21
				c-12.04,1.97-35.93,6.77-60.47,16.55l-0.09,0.09c-14.67,5.83-29.62,13.54-42.32,23.61C858.32,763.89,857.1,770.19,860.3,774.98z"
				/>
			<path class="st7" d="M860.3,774.98c11.19,17.02,44.11,57.46,91.13,39.59c14.3-5.46,23.14-14.39,28.12-24.64
				c-1.69,1.97-15.99,17.4-37.71,20.03c-23.14,2.73-60.2-21.79-64.23-36.87c-5.24-19.56,18.62-30.75,27.56-36.3
				c-14.67,5.83-29.62,13.54-42.32,23.61C858.32,763.89,857.1,770.19,860.3,774.98z"/>
			<path class="st8" d="M964.23,724.61c0,0-42.12,9.4-55.3,16.91c-13.67,7.79-22.05,13.95-17.05,26
				c2.48,5.98,26.45,29.98,53.78,27.04c27.33-2.94,31.96-22.32,32.03-45.26C977.77,726.36,970.64,724.39,964.23,724.61z"/>
		</g>
		<path class="st9" d="M460.28,1009.78c-2.88,2.76-5.62,5.4-8.37,8.03c0,0-2.73,2.82-2.28,3.3c1.35,1.4,9.73-6.56,12.74-9.2
			c8.37-6.77,17.13-13.93,26.28-21.2c8.89-7.65,19.22-14.05,29.16-21.33c9.81-7.4,20.92-13.43,31.38-20.2
			c10.46-6.77,21.97-12.17,32.69-18.19c10.98-5.4,21.97-10.54,32.82-15.18c10.98-4.27,21.44-8.66,31.77-11.67
			c10.07-3.64,20.01-6.15,29.03-8.53c9.15-2.01,17.52-4.02,24.97-5.14c7.58-1.25,14.12-2.01,19.48-2.51
			c5.36-0.38,9.67-0.75,12.42-0.75c2.75,0,4.32,0,4.32,0h0.39c3.53,0,6.54-2.76,6.54-6.27c0-3.39-3.01-6.27-6.54-6.27
			c-0.13,0-0.26,0-0.26,0s-1.7,0.13-4.84,0.25c-3.27,0-7.58,0.5-13.34,1.13c-5.75,0.75-12.55,1.63-20.27,3.26
			c-7.85,1.38-16.34,3.76-25.76,6.15c-9.28,2.76-19.35,5.52-29.55,9.54c-10.46,3.51-21.05,8.41-32.03,13.05
			c-10.85,5.02-21.84,10.67-32.95,16.44c-10.72,6.52-22.1,12.3-32.43,19.45c-10.46,7.15-21.31,13.55-30.99,21.33
			c-9.81,7.65-20,14.43-28.63,22.33C477.14,995.22,468.51,1002.75,460.28,1009.78z"/>
		<path class="st9" d="M514.49,1101.44c-2.17,3.3-4.24,6.46-6.31,9.61c0,0-2.01,3.33-1.46,3.7c1.64,1.08,7.97-8.47,10.3-11.67
			c6.6-8.39,13.49-17.22,20.74-26.26c6.91-9.35,15.5-17.79,23.51-27c7.86-9.3,17.31-17.54,25.94-26.37
			c8.64-8.83,18.61-16.53,27.68-24.69c9.47-7.59,18.99-14.94,28.5-21.78c9.73-6.49,18.92-13,28.29-18.13
			c8.98-5.69,18.09-10.24,26.34-14.49c8.46-3.9,16.16-7.64,23.17-10.32c7.11-2.83,13.31-4.96,18.42-6.59
			c5.14-1.5,9.26-2.79,11.94-3.37c2.68-0.58,4.21-0.92,4.21-0.92l0.38-0.08c3.44-0.75,5.74-4.08,4.93-7.51
			c-0.78-3.3-4.38-5.48-7.82-4.73c-0.13,0.03-0.26,0.05-0.26,0.05s-1.63,0.48-4.66,1.27c-3.19,0.69-7.28,2.1-12.74,3.93
			c-5.44,1.96-11.86,4.26-19.01,7.49c-7.33,3.01-15.07,7.14-23.7,11.47c-8.42,4.66-17.6,9.49-26.62,15.58
			c-9.39,5.65-18.59,12.67-28.23,19.53c-9.43,7.2-18.83,15.04-28.34,23.03c-8.95,8.64-18.71,16.69-27.14,25.85
			c-8.55,9.2-17.66,17.74-25.3,27.38c-7.8,9.55-16.18,18.32-22.77,27.86C527.58,1083.67,520.9,1092.84,514.49,1101.44z"/>
		<path class="st9" d="M1286.92,507.41c3.09-0.8,6.03-1.56,8.98-2.33c0,0,3.06-0.59,3.16,0.31c0.28,2.66-8.66,5.06-11.73,6.1
			c-8.18,3.39-16.78,6.89-25.63,10.71c-8.98,3.22-17.82,9.06-27.03,13.74c-9.24,4.43-18.19,11.45-27.33,17.12
			c-9.14,5.67-17.87,13.65-26.64,20.24c-8.49,7.41-16.82,15.03-24.77,22.94c-7.77,8.37-15.38,16.06-22.04,24.77
			c-6.95,7.9-13.11,16.61-18.77,24.43c-5.48,8.28-10.6,15.71-14.74,22.88c-4.28,7.21-7.76,13.7-10.54,19.12
			c-2.7,5.53-4.92,9.91-6.17,12.91c-1.26,2.99-1.98,4.71-1.98,4.71l-0.18,0.43c-1.62,3.85-4.76,4.79-7.02,1.82
			c-2.17-2.87-2.64-8.59-1.02-12.44c0.06-0.14,0.12-0.28,0.12-0.28s0.86-1.75,2.38-5.06c1.5-3.57,3.8-7.84,6.84-13.59
			c3.12-5.64,6.8-12.31,11.38-19.34c4.48-7.39,9.9-14.64,15.74-22.88c6.02-7.79,12.41-16.43,19.65-24.15
			c7.05-8.43,15.04-15.84,23.04-23.89c8.19-7.59,16.84-14.78,25.63-22.01c9.09-6.17,18.01-13.69,27.33-18.9
			c9.38-5.35,18.45-11.77,27.87-15.73c9.4-4.21,18.41-9.6,27.44-12.32C1269.87,513.48,1278.65,510.44,1286.92,507.41z"/>
		<path class="st9" d="M1320.83,644.15c3.11,0.43,6.08,0.84,9.05,1.26c0,0,3.06,0.63,3.04,1.54c-0.06,2.7-9.08,1.53-12.2,1.35
			c-8.4,0.1-17.22,0.13-26.33,0.38c-9.16-0.39-18.5,1.85-28.08,2.79c-9.56,0.69-19.17,4.02-28.79,5.97
			c-9.62,1.94-19.13,6.3-28.51,9.29c-9.21,3.89-18.28,8.06-27.02,12.65c-8.62,5.11-17,9.62-24.58,15.51
			c-7.76,4.98-14.86,11.06-21.35,16.46c-6.38,5.93-12.3,11.16-17.23,16.53c-5.07,5.35-9.28,10.32-12.66,14.51
			c-3.32,4.33-6.03,7.74-7.63,10.17c-1.6,2.43-2.52,3.81-2.52,3.81l-0.23,0.35c-2.06,3.12-5.24,2.8-7.07-0.98
			c-1.76-3.65-1.51-9.42,0.55-12.54c0.08-0.12,0.15-0.23,0.15-0.23s1.06-1.37,2.95-4.01c1.91-2.89,4.68-6.16,8.36-10.57
			c3.75-4.27,8.17-9.34,13.51-14.39c5.29-5.45,11.48-10.39,18.21-16.14c6.85-5.23,14.15-11.15,22.18-15.84
			c7.92-5.46,16.64-9.55,25.45-14.25c8.93-4.18,18.27-7.81,27.75-11.41c9.64-2.45,19.27-6.28,29.01-7.7
			c9.81-1.54,19.46-4.24,29.14-4.4c9.69-0.42,19.16-2.13,28.29-1.24C1303.43,643.37,1312.37,643.86,1320.83,644.15z"/>
		
			<ellipse transform="matrix(0.866 -0.5 0.5 0.866 -155.0764 517.0369)" class="st10" cx="887.27" cy="547.9" rx="30.7" ry="42.81"/>
		
			<ellipse transform="matrix(0.866 -0.5 0.5 0.866 -249.7462 412.3051)" class="st10" cx="644.5" cy="672.19" rx="34.2" ry="42.81"/>
		<g>
			<g>
				<path class="st11" d="M776.75,376.06c1.4-0.54,2.83-1.01,4.27-1.41c0.35-0.1,0.7-0.2,1.05-0.28c0.77-0.17,1.48-0.56,2.19-0.89
					c0.74-0.35,1.5-0.69,2.25-1.01c-0.46,0.19-0.92,0.39-1.38,0.58c2.98-1.26,6.07-2.26,9.22-3.02c3.19-0.77,6.39-1.47,9.64-1.91
					c-0.59,0.08-1.18,0.16-1.77,0.24c7.73-1.03,15.56-0.86,23.29,0.17c-0.63-0.09-1.27-0.17-1.9-0.26
					c11.67,1.58,23.02,4.72,34.21,8.31c1.59,0.51,3.18,1.03,4.77,1.55c1.51,0.5,3.07,0.94,4.55,1.52c-0.6-0.25-1.19-0.5-1.79-0.76
					c0.31,0.13,0.6,0.28,0.88,0.48c-0.51-0.39-1.01-0.78-1.52-1.17c0.12,0.1,0.23,0.2,0.33,0.33c-0.39-0.51-0.78-1.01-1.17-1.52
					c0.06,0.08,0.12,0.16,0.16,0.25c-0.25-0.6-0.5-1.2-0.76-1.79c0.04,0.09,0.08,0.19,0.1,0.29c-0.09-0.67-0.18-1.33-0.27-2
					c0.02,0.09,0.03,0.17,0.02,0.26c0.09-0.67,0.18-1.33,0.27-2c-0.01,0.07-0.02,0.13-0.05,0.19c0.25-0.6,0.5-1.2,0.76-1.79
					c-0.02,0.03-0.03,0.05-0.05,0.08c0.39-0.51,0.78-1.01,1.17-1.52c-0.04,0.05-0.08,0.1-0.13,0.14c0.51-0.39,1.01-0.78,1.52-1.17
					c-0.09,0.06-0.16,0.11-0.26,0.15c0.6-0.25,1.2-0.5,1.79-0.76c-0.1,0.04-0.19,0.06-0.3,0.08c0.67-0.09,1.33-0.18,2-0.27
					c-0.1,0.01-0.19,0.01-0.3,0c0.67,0.09,1.33,0.18,2,0.27c-0.06-0.01-0.12-0.02-0.17-0.04c0.6,0.25,1.2,0.51,1.8,0.76
					c-0.05-0.02-0.1-0.04-0.14-0.08c0.51,0.39,1.01,0.78,1.52,1.18c-0.02-0.02-0.04-0.03-0.05-0.05c0.39,0.51,0.78,1.01,1.18,1.52
					c-0.01-0.02-0.03-0.04-0.04-0.06c0.25,0.6,0.51,1.2,0.76,1.8c-0.01-0.02-0.02-0.05-0.03-0.07c0.09,0.67,0.18,1.33,0.27,2
					c-0.01-0.06-0.01-0.11,0-0.17c-0.09,0.67-0.18,1.33-0.27,2c0.01-0.03,0.02-0.07,0.03-0.1c0.71-2.58-0.03-5.44-1.93-7.32
					c-5.49-5.43-10.93-10.84-17.14-15.46c-2.71-2.01-5.59-3.8-8.66-5.2c-3.75-1.7-7.58-3.08-11.67-3.71
					c-2.71-0.42-5.36-0.7-8.11-0.63c-2.2,0.05-4.39,0.26-6.57,0.55c-4.52,0.6-9.04,1.35-13.46,2.46c-3.09,0.77-6.13,1.73-9.11,2.84
					c-3.65,1.36-7.1,3.19-10.43,5.21c-3.19,1.94-6.24,4.12-9.09,6.53c-1.2,1.01-2.34,2.08-3.42,3.21c-0.62,0.65-1.2,1.33-1.76,2.04
					c-0.54,0.7-0.92,1.5-1.3,2.29c-0.49,1.04-1.02,2.07-1.09,3.23c0.14-0.53,0.29-1.06,0.43-1.59c-0.03,0.04-0.06,0.08-0.09,0.12
					c-0.46,0.6-0.51,1.73-0.32,2.42c0.2,0.73,0.77,1.52,1.45,1.88c0.73,0.39,1.62,0.58,2.42,0.32c0.83-0.27,1.35-0.76,1.88-1.45
					c0.03-0.04,0.06-0.08,0.09-0.12c-0.63,0.48-1.25,0.96-1.88,1.45c0.82-0.26,1.44-0.76,2.16-1.21c0.52-0.32,1.06-0.61,1.59-0.91
					c1.15-0.66,2.18-1.56,3.31-2.27c2.47-1.55,5.09-2.85,7.77-3.99c-0.45,0.19-0.89,0.38-1.34,0.57c3.63-1.53,7.38-2.75,11.19-3.73
					c1.87-0.48,3.69-1.14,5.56-1.65c1.76-0.47,3.53-0.9,5.32-1.25c2.31-0.47,4.65-0.81,6.99-1.12c-0.65,0.09-1.3,0.18-1.96,0.26
					c5.81-0.77,11.58-1.04,17.4-0.27c-0.69-0.09-1.37-0.18-2.06-0.28c3.29,0.46,6.5,1.33,9.56,2.61c-0.61-0.26-1.23-0.52-1.84-0.78
					c3.92,1.66,7.52,3.94,10.88,6.53c-0.51-0.4-1.03-0.8-1.54-1.19c5.06,3.93,9.6,8.48,14.19,12.92c-0.64-2.44-1.29-4.88-1.93-7.32
					c-0.88,3.34,0.43,7.22,3.56,8.94c2,1.1,4.28,1.45,6.51,0.85c2.07-0.55,4.12-1.97,5.12-3.89c1.4-2.68,1.4-5.82-0.14-8.45
					c-0.84-1.43-2.21-2.73-3.69-3.48c-1.27-0.64-2.59-1.06-3.94-1.49c-1.63-0.52-3.26-1.04-4.89-1.55
					c-6.64-2.08-13.32-4.08-20.1-5.68c-4.34-1.03-8.72-1.91-13.14-2.48c0.64,0.09,1.29,0.17,1.93,0.26
					c-8.44-1.18-16.9-1.78-25.4-0.88c-4.24,0.45-8.47,1.11-12.6,2.17c-4.06,1.05-7.99,2.69-11.73,4.58
					c-1.82,0.92-3.63,1.91-5.32,3.06c-1.19,0.8-2.16,1.93-3.1,3c-0.7,0.79-1.37,1.6-2.02,2.42c-0.56,0.71-0.96,1.34-1.08,2.26
					c-0.11,0.84-0.01,1.78,0.47,2.51c0.37,0.57,0.84,1.04,1.41,1.41C774.48,376.16,775.88,376.39,776.75,376.06z"/>
			</g>
		</g>
		<g>
			<g>
				<path class="st11" d="M449.98,505.87c0.49-0.03,0.98-0.05,1.46-0.07c-0.58-0.08-1.17-0.16-1.75-0.24
					c0.02,0.01,0.05,0.02,0.07,0.02c1.2,0.32,2.41,0.32,3.61,0c1.15-0.32,2.15-0.9,2.99-1.75c3.16-4.04,6.62-7.86,10.22-11.51
					c3.57-3.61,7.16-7.21,10.99-10.56c2.2-1.93,4.46-3.78,6.77-5.57c-0.51,0.4-1.03,0.79-1.54,1.19
					c5.89-4.55,12.12-8.65,18.64-12.25c1.61-0.89,3.15-2.83,3.57-4.64c0.09-0.69,0.18-1.37,0.28-2.06c0-1.4-0.36-2.71-1.06-3.92
					c-0.68-1.43-2.12-2.79-3.51-3.52c-1.16-0.61-2.02-0.84-3.26-1.01c-0.63-0.08-1.08-0.18-1.67-0.12
					c-1.16,0.11-2.31,0.27-3.43,0.59c-0.55,0.15-1.1,0.31-1.67,0.4c0.69-0.09,1.38-0.19,2.07-0.28c-3.15,0.4-6.14,0.9-9.14,1.97
					c-2.96,1.05-5.84,2.34-8.64,3.76c-4.17,2.11-8.34,4.25-12.3,6.74c-2.46,1.55-4.79,3.26-7.06,5.07c-1.8,1.43-3.5,2.98-5.03,4.69
					c-1.88,2.09-3.65,4.35-5.1,6.76c-1.33,2.19-2.47,4.6-2.95,7.13c-0.62,3.24-0.65,6.25-0.02,9.49c0.31,1.56,0.91,3,1.55,4.46
					c0.24,0.54,0.48,1.1,0.79,1.61c0.56,0.93,1.29,1.65,2.19,2.26c0.24,0.16,0.49,0.31,0.74,0.46c2.23,1.35,5.84,0.17,6.36-2.59
					c0.05-0.25,0.1-0.5,0.15-0.75c0.07-0.31,0.1-0.58,0.15-0.92c0.1-0.78-0.01-1.45-0.12-2.23c0.06,0.45,0.12,0.91,0.18,1.36
					c-0.14-1.07-0.34-2.12-0.49-3.18c0.06,0.48,0.13,0.96,0.19,1.43c-0.22-1.72-0.26-3.47-0.03-5.19c-0.07,0.54-0.14,1.07-0.22,1.61
					c0.2-1.41,0.58-2.77,1.13-4.09c-0.22,0.52-0.44,1.04-0.66,1.56c1-2.36,2.33-4.63,3.9-6.67c-0.36,0.47-0.73,0.94-1.09,1.41
					c2.15-2.77,4.69-5.21,7.46-7.35c-0.49,0.38-0.98,0.76-1.47,1.14c3.56-2.73,7.48-4.95,11.49-6.94c4.2-2.09,8.5-4.02,12.81-5.85
					c-0.63,0.26-1.25,0.53-1.88,0.79c2.83-1.19,5.75-2.16,8.8-2.58c-0.69,0.09-1.38,0.19-2.07,0.28c1.29-0.17,2.54-0.29,3.79-0.66
					c0.58-0.17,1.16-0.35,1.77-0.44c-0.69,0.09-1.38,0.19-2.07,0.28c0.23-0.02,0.46-0.03,0.69,0c-0.69-0.09-1.38-0.18-2.06-0.28
					c0.13,0.03,0.24,0.06,0.36,0.11c-0.62-0.26-1.24-0.52-1.85-0.78c0.07,0.04,0.14,0.08,0.21,0.13c-0.52-0.4-1.05-0.81-1.57-1.21
					c0.07,0.05,0.13,0.11,0.18,0.18c-0.4-0.52-0.81-1.05-1.21-1.57c0.09,0.12,0.16,0.24,0.22,0.37c0.93-3.54,1.86-7.08,2.78-10.61
					c-7.53,4.29-14.62,9.27-21.34,14.74c-6.28,5.11-12.25,10.69-17.4,16.94c-3.24,3.93-6.28,8.01-9.17,12.19
					c-1.26,1.82-1.3,5.03,0,6.85c0.02,0.02,0.03,0.05,0.05,0.07c-0.22-0.52-0.44-1.05-0.66-1.57c0.14,0.5,0.28,1.01,0.43,1.51
					C446.07,504.34,447.95,505.98,449.98,505.87z"/>
			</g>
		</g>
	</g>
	<g>
		<path class="st0" d="M1279.35,1380.21c103.25,16.74,192.79-69.06,237.75-170.74c45.45-102.79-7.86-238.18-34.84-338.93
			c-52.98-197.86-102.91-524.48,148.66-610.51c134.43-45.97,218.5,158.86,83.37,205.07c-94.53,32.33-51.89,215.22-35.53,286.8
			c29.56,129.29,78.29,254.57,74.2,389.18c-8.2,269.65-266,432.1-525.2,390.06c-140.58-22.8-134.52-192.9,6.26-170.07
			L1279.35,1380.21z"/>
	</g>
</g>
</svg>
