<?xml version="1.0" encoding="utf-8"?>
<!-- Generator: Adobe Illustrator 24.1.0, SVG Export Plug-In . SVG Version: 6.00 Build 0)  -->
<svg version="1.1" id="Capa_1" xmlns="http://www.w3.org/2000/svg" xmlns:xlink="http://www.w3.org/1999/xlink" x="0px" y="0px"
	 viewBox="0 0 752.89 563.89" style="enable-background:new 0 0 752.89 563.89;" xml:space="preserve">
<style type="text/css">
	.st0{fill:#5C0F8B;}
</style>
<path class="st0" d="M749.12,188.39c0-13.85-11.22-25.07-25.07-25.07c-13.85,0-25.07,11.22-25.07,25.07
	c0,82.02-66.72,148.74-148.74,148.74c-75.68,0-138.3-56.83-147.53-130.06c21.6-5.02,42.88-14.74,61.04-25.34
	c29.81-17.39,55.71-41.42,75.11-69.97c16.11-23.72,39.39-64.61,17.65-91.68c-17.4-21.68-51.85-16.63-76.65-16.65
	c-58.45-0.05-116.9-0.05-175.35-0.02c-23.99,0.01-48.89-1.72-72.79,0.69c-15.95,1.6-32.11,7.27-39.63,22.61
	c-7.3,14.9-4.01,32.86,1.77,47.66c25.63,65.72,88.2,115.42,156.37,131.96c-8.89,73.58-71.68,130.8-147.62,130.8
	c-82.02,0-148.74-66.72-148.74-148.74c0-13.85-11.22-25.07-25.07-25.07S3.76,174.54,3.76,188.39c0,101.67,76.69,185.7,175.26,197.42
	c11.72,98.56,95.76,175.26,197.42,175.26s185.7-76.7,197.42-175.26C672.43,374.09,749.12,290.06,749.12,188.39z M376.44,510.94
	c-74.12,0-135.75-54.51-146.92-125.54c63.22-8.59,117.07-46.96,146.92-100.5c29.85,53.55,83.7,91.92,146.92,100.5
	C512.19,456.43,450.57,510.94,376.44,510.94z"/>
</svg>
