<?xml version="1.0" encoding="utf-8"?>
<!-- Generator: Adobe Illustrator 24.1.0, SVG Export Plug-In . SVG Version: 6.00 Build 0)  -->
<svg version="1.1" id="Capa_1" xmlns="http://www.w3.org/2000/svg" xmlns:xlink="http://www.w3.org/1999/xlink" x="0px" y="0px"
	 viewBox="0 0 1668.19 1606.38" style="enable-background:new 0 0 1668.19 1606.38;" xml:space="preserve">
<style type="text/css">
	.st0{fill:#CC7200;}
	.st1{fill:#FDEDDF;}
	.st2{fill:#A44900;}
	.st3{fill:#EA6B48;}
	.st4{fill:#D14E48;}
	.st5{fill:#5C301D;}
	.st6{fill:#ECBB93;}
	.st7{fill:#4C2617;}
	.st8{fill:#6D3927;}
	.st9{fill:#BA513C;}
	.st10{fill:#300D04;}
	.st11{fill:#6C1712;}
	.st12{fill:#5C0F8B;}
	.st13{opacity:0.39;clip-path:url(#SVGID_2_);}
	.st14{opacity:0.7;fill:#3C0B68;}
	.st15{fill:#BB744C;}
	.st16{opacity:0.44;fill:#A3765B;}
	.st17{fill:#441F11;}
	.st18{fill:#D9C6B1;}
	.st19{fill:#814C34;}
	.st20{fill:#492316;}
	.st21{fill:#F8F4EB;}
	.st22{fill:#DCDAD5;}
	.st23{fill:#FFFFFF;}
</style>
<g>
	<path class="st15" d="M1058.04,976.4c-103.5,9.23-210.8,4.9-313.54,25.65c-86.68,17.5-171.8,54.74-232.06,119.46
		c-63.76,68.47-94.32,161.02-116.46,251.93c-17.9,73.49-31.43,149.67-30.53,224.92h1294.39c-4.04-34.34-15.24-69.44-28.3-100.8
		C1532.57,1259.8,1346.28,950.69,1058.04,976.4z"/>
	<path class="st16" d="M472.14,1113.52c262.86,181.23,486.43,130.67,566.09,113.56c-7.11-25.21-16.38-50.42-27.58-74.99
		c-91.58-199.54-499.29-105.16-499.29-105.16S495.41,1071.5,472.14,1113.52z"/>
	<path class="st17" d="M927.04,143.75c0,0,284.43,607.31,339.87,455.7c8.31-22.51,14.41-48.88,18.25-77.79
		c22.48-163.63-24.86-402.72-123.59-442.93c-69.24-28.2-139.34,0.37-184.57,28.07l-0.21,0.03
		C946.3,125.54,927.04,143.75,927.04,143.75z"/>
	<path class="st16" d="M927.04,143.75c0,0,284.43,607.31,339.87,455.7c8.31-22.51,14.41-48.88,18.25-77.79
		c-81.38-72.3-174.47-201.13-221.33-291.13c-35.82-68.99-68.39-106.24-86.82-123.74l-0.21,0.03
		C946.3,125.54,927.04,143.75,927.04,143.75z"/>
	<path class="st15" d="M353.66,970.26c9.7,13.57,19.74,26.45,30.14,38.64c136.68,163.87,311.88,213.37,507.58,191.1
		c37.24-4.35,75.27-11.19,113.88-20.27c256.81-60.37,392.66-308.69,349.06-458.79c-13.44-45.9-28.77-77.02-45.42-101.24
		c-38.52-55.63-85.3-75.95-137.35-155.1c-74.52-113.74-162.43-345.46-275.58-411.26C783.07-12.28,637.85,12.7,637.85,12.7
		C435.17,34.74,322.71,158.6,271.99,313.32C197.35,540.24,255.08,833.85,353.66,970.26z"/>
	<path class="st16" d="M353.66,970.26c9.7,13.57,19.74,26.45,30.14,38.64c76.06-66.65-66.05-429.81-103.43-572.41
		c-17.75-67.7,53.54-106.87,53.54-106.87l-36.27-21.39l-25.64,5.1C197.35,540.24,255.08,833.85,353.66,970.26z"/>
	<path class="st17" d="M349.81,290.46c0,0-156.8-98.37-261.76,19.44S-0.31,666.3,36.85,777.54s154.36,262.42,254.08,251.07
		c99.72-11.35,83.89-91.7,55.93-231.2c-27.97-139.5-109.67-348.39-77.24-408.45C302.05,328.89,411.81,353.42,349.81,290.46z"/>
	<path class="st18" d="M595.17,953.3c8.47,69.08,30.32,112.9,83.11,160.32c84.49,75.9,212.72,92.59,323.37,66.95
		c1.2-0.28,2.41-0.56,3.61-0.84c256.81-60.37,392.66-308.69,349.06-458.79c-13.44-45.9-28.77-77.02-45.42-101.24
		c-74.51-86.75-206.72-92.32-335.26-76.55C740.29,571.77,572.77,770.64,595.17,953.3z"/>
	<path class="st19" d="M635.51,318.74c28.59-3.62,76.07,29.3,108.92,74.77c32.85,45.47,70.82,107.89,41.56,165.83
		c-29.26,57.94-117.8,52.64-168.57,9.36C566.65,525.44,467.16,340.07,635.51,318.74z"/>
	<path class="st5" d="M796.43,650.64c16.49,14.04,102,89.96,170.79,70.24c46.78-13.34,74.9-61.94,89.57-106.95
		c12.7-38.03,15.75-73.36,12.67-82.54c-6.34-19.85-58.88-21.65-58.88-21.65s-22.59-0.05-57.3,7.25c-0.83,0.32-1.87,0.66-3.58,0.87
		c-1.07,0.13-2.11,0.48-3.15,0.82c-41.21,9.18-97.2,28.86-153.02,69.35C793.53,588.04,746.57,608.78,796.43,650.64z"/>
	<path class="st20" d="M796.43,650.64c16.49,14.04,102,89.96,170.79,70.24c46.78-13.34,74.9-61.94,89.57-106.95
		c-4.64,8.17-45.16,77.84-101.7,78.91c-60.2,1.3-142.71-62.75-144.66-78.43c-3.31-26.58,99.31-86,136.11-95.72
		c-41.21,9.18-97.2,28.86-153.02,69.35C793.53,588.04,746.57,608.78,796.43,650.64z"/>
	<path class="st21" d="M1010.07,552.4c0,0,9.04,3.57,7.92,18.85c-0.84,11.54-4.8,24.9-18.41,35.92
		c-13.61,11.02-47.8,3.62-65.87-6.51c-18.07-10.12-19.1-21.54-2.43-32.03C947.95,558.15,988.06,542.94,1010.07,552.4z"/>
	<g>
		<path class="st20" d="M956.68,371.15c2.32,18.94,17.17,32.7,33.16,30.74c16-1.96,27.09-18.91,24.76-37.85
			c-2.32-18.94-17.17-32.71-33.18-30.74C965.44,335.27,954.36,352.22,956.68,371.15z"/>
	</g>
	<g>
		<path class="st20" d="M648.23,470.32c2.64,21.53,19.51,37.19,37.69,34.96c18.21-2.23,30.8-21.5,28.15-43.03
			c-2.64-21.54-19.51-37.18-37.72-34.95C658.18,429.53,645.59,448.78,648.23,470.32z"/>
	</g>
	<g>
		<g>
			<path class="st11" d="M603.39,264.26c-1.8-0.36-3.63-0.6-5.46-0.77c0.39,0.05,0.78,0.1,1.17,0.16c-1.29-0.35-2.58-0.06-3.86,0.15
				c-0.67,0.11-1.33,0.23-1.99,0.37c-1.25,0.26-2.49,0.57-3.72,0.93c-2.86,0.84-5.63,1.96-8.28,3.31c-5,2.56-9.61,5.87-13.84,9.54
				c-8.89,7.71-15.7,17.5-21.98,27.38c-0.84,1.32-1.68,2.65-2.5,3.98c-0.94,1.51-1.97,2.98-2.66,4.62
				c-0.91,2.16-0.86,4.44,0.23,6.54c1.36,2.61,4.58,3.81,7.35,3.1c1.74-0.45,3.39-1.64,4.27-3.23c0.81-1.46,1.06-3.18,0.62-4.8
				c-0.26-0.96-0.56-1.42-1.1-2.12c-0.61-0.78-0.92-1.01-1.83-1.69c0.99,1.73,1.98,3.46,2.98,5.19c0.32-3.38,0.61-6.76,1.05-10.13
				c-0.07,0.54-0.14,1.08-0.22,1.61c0.59-4.38,1.48-8.75,3.2-12.84c-0.21,0.49-0.41,0.98-0.62,1.47c1.04-2.43,2.36-4.71,3.97-6.8
				c-0.32,0.42-0.65,0.83-0.97,1.25c2.09-2.67,4.57-5.04,7.24-7.12c-0.41,0.31-0.81,0.63-1.22,0.94c5.04-3.88,10.61-7.16,16.46-9.64
				c-0.44,0.19-0.88,0.37-1.32,0.56c2.06-0.87,4.06-1.85,6.11-2.72c-0.4,0.17-0.8,0.34-1.21,0.51c3.95-1.66,8.07-3.02,12.33-3.6
				c-0.33,0.04-0.66,0.09-0.99,0.13c1.26-0.17,2.56-0.17,3.81-0.42c0.44-0.09,0.88-0.18,1.32-0.25c0.1-0.02,0.2-0.03,0.3-0.05
				c-0.09,0.02-0.68,0.08-0.28,0.04c0.43-0.04,0.92-0.04,1.31-0.2c-0.45,0-0.89,0-1.34,0c0.05,0.01,0.11,0.02,0.16,0.03
				c1.28,0.27,2.78-0.38,3.09-1.76c0.29-1.26-0.38-2.8-1.76-3.09c-0.05-0.01-0.11-0.02-0.16-0.03c0.37,0.22,0.74,0.43,1.11,0.65
				c-0.51-0.53-1.21-0.81-1.87-1.1c-0.71-0.31-1.53-0.73-2.3-0.89c-1.52-0.3-3.13-0.41-4.68-0.46c-3.15-0.1-6.28,0.22-9.4,0.67
				c-2.84,0.41-5.8,0.9-8.51,1.88c-2.95,1.06-5.85,2.28-8.66,3.68c-2.67,1.33-5.29,2.83-7.81,4.43c-1.73,1.1-3.38,2.32-5,3.58
				c-1.26,0.98-2.5,2.01-3.58,3.18c-4.43,4.8-7.45,10.62-9.06,16.94c-0.88,3.46-1.36,7.03-1.75,10.58
				c-0.18,1.64-0.33,3.28-0.47,4.92c-0.07,0.81-0.13,1.61-0.2,2.42c-0.03,0.41-0.07,0.82-0.1,1.22c-0.06,0.72-0.07,1.11,0.18,2.01
				c0.46,1.67,1.5,2.68,2.85,3.66c-0.41-0.31-0.81-0.63-1.22-0.94c0.02,0.02,0.04,0.05,0.06,0.07c-0.52-0.88-1.03-1.77-1.55-2.65
				c0.01,0.03,0.02,0.05,0.03,0.08c-0.07-0.53-0.14-1.07-0.21-1.6c0,0.03,0,0.05,0,0.08c0.07-0.53,0.14-1.07,0.21-1.6
				c-0.01,0.03-0.01,0.06-0.02,0.08c0.2-0.48,0.4-0.96,0.61-1.44c-0.02,0.06-0.06,0.12-0.1,0.16c0.31-0.41,0.63-0.81,0.94-1.22
				c-0.05,0.06-0.1,0.1-0.16,0.15c0.41-0.31,0.81-0.63,1.22-0.94c-0.06,0.04-0.13,0.08-0.2,0.11c0.48-0.2,0.96-0.4,1.43-0.61
				c-0.07,0.03-0.14,0.05-0.22,0.06c0.53-0.07,1.06-0.14,1.6-0.21c-0.04,0-0.07,0-0.11,0c0.53,0.07,1.06,0.14,1.6,0.21
				c-0.07,0-0.14-0.02-0.21-0.05c0.48,0.2,0.96,0.4,1.43,0.61c-0.03-0.02-0.06-0.04-0.09-0.06c0.4,0.31,0.81,0.63,1.21,0.94
				c-0.03-0.03-0.05-0.06-0.08-0.08c0.31,0.4,0.63,0.81,0.94,1.21c-0.03-0.05-0.06-0.1-0.09-0.15c0.2,0.48,0.4,0.96,0.6,1.43
				c-0.05-0.1-0.08-0.21-0.1-0.33c0.07,0.53,0.14,1.06,0.21,1.59c-0.01-0.12-0.01-0.23,0.01-0.35c-0.07,0.53-0.14,1.06-0.21,1.59
				c0.04-0.19,0.08-0.35,0.15-0.53c-0.2,0.48-0.4,0.95-0.6,1.43c0.45-1.04,1.15-2,1.74-2.97c0.58-0.96,1.16-1.91,1.75-2.87
				c1.21-1.97,2.43-3.94,3.68-5.89c2.49-3.89,5.1-7.7,7.92-11.36c-0.3,0.39-0.61,0.79-0.91,1.18c4.51-5.82,9.42-11.31,15.25-15.84
				c-0.37,0.28-0.73,0.57-1.1,0.85c4.39-3.39,9.25-6.24,14.35-8.41c-0.39,0.16-0.78,0.33-1.17,0.49c1.46-0.62,2.95-1.17,4.47-1.63
				c1.01-0.31,2.19-0.48,3.11-1.02c0.65-0.38,1.35-0.68,2.05-0.98c-0.3,0.13-0.6,0.26-0.91,0.38c0.74-0.31,1.49-0.6,2.25-0.87
				c1.27-0.45,2.37-1.59,2.31-3.03C605.64,265.98,604.78,264.54,603.39,264.26z"/>
		</g>
	</g>
	<g>
		<g>
			<path class="st11" d="M883.49,165.98c-0.16-0.35-0.32-0.7-0.49-1.05c0.17,0.4,0.34,0.79,0.5,1.19c-0.01-0.07-0.03-0.15-0.04-0.22
				c-0.36-1.79-2.06-3.34-3.79-3.79c-6.74-1.75-13.53-3.09-20.49-3.57c-6.45-0.45-12.93-0.36-19.37,0.27
				c-4.12,0.4-8.22,0.98-12.28,1.76c2.54,1.44,5.08,2.89,7.63,4.33c-0.03-0.08-0.04-0.17-0.05-0.25c0.07,0.55,0.15,1.1,0.22,1.65
				c-0.01-0.08-0.01-0.15,0-0.23c-0.07,0.55-0.15,1.1-0.22,1.65c0.01-0.07,0.03-0.14,0.05-0.21c-0.21,0.49-0.42,0.99-0.63,1.48
				c0.05-0.1,0.1-0.19,0.17-0.28c-0.32,0.42-0.65,0.84-0.97,1.26c0.08-0.09,0.16-0.17,0.25-0.25c-0.42,0.32-0.84,0.65-1.26,0.97
				c0.75-0.57,1.7-0.81,2.5-1.3c1.21-0.75,2.42-1.42,3.73-1.98c-0.5,0.21-1,0.42-1.49,0.63c3.23-1.36,6.67-2.24,10.03-3.2
				c3.63-1.03,7.29-1.97,11.04-2.48c-0.52,0.07-1.04,0.14-1.57,0.21c3.22-0.43,6.47-0.51,9.7-0.1c-0.5-0.07-1-0.13-1.5-0.2
				c2.05,0.28,4.07,0.73,5.98,1.53c-0.43-0.18-0.87-0.37-1.3-0.55c0.79,0.34,1.6,0.66,2.39,0.99c-0.42-0.18-0.85-0.36-1.27-0.54
				c1.07,0.46,2.08,1.03,3.01,1.74c-0.33-0.26-0.67-0.51-1-0.77c0.87,0.68,1.58,1.47,2.31,2.29c-0.24-0.31-0.48-0.62-0.71-0.92
				c0.32,0.44,0.66,0.86,0.99,1.28c-0.23-0.3-0.47-0.61-0.7-0.91c0.41,0.53,0.79,1.09,1.13,1.67c0.25,0.43,0.48,0.81,0.78,1.21
				c0.37,0.48,0.82,0.78,1.3,1.16c0.18,0.14-0.87-0.69-0.23-0.17c0.99,0.8,2.08,1.24,3.36,0.89c1.21-0.33,2.03-1.25,2.42-2.42
				c0.23-0.69,0.41-1.34,0.39-2.09c-0.02-0.68-0.2-1.41-0.38-2.07c-0.29-1.07-0.68-2.17-1.19-3.16c0.15,0.36,0.31,0.73,0.46,1.09
				c-0.83-2-1.91-3.72-3.38-5.33c-0.45-0.5-0.95-0.96-1.47-1.38c-0.84-0.68-1.75-1.46-2.73-1.95c-3.82-1.94-8.04-2.85-12.29-3.16
				c-4.95-0.36-9.97,0.39-14.8,1.37c-4.25,0.86-8.62,1.75-12.68,3.31c-1.52,0.58-3.04,1.21-4.49,1.97c-0.93,0.49-1.77,1.13-2.7,1.6
				c-1.16,0.58-2.1,1.06-3.11,1.94c-0.82,0.71-1.33,1.59-1.74,2.57c-0.64,1.53-0.75,3.12-0.31,4.73c0.39,1.44,1.52,3,2.85,3.71
				c1.53,0.81,3.07,0.98,4.78,0.62c2.62-0.54,5.26-0.99,7.92-1.35c-0.54,0.07-1.09,0.15-1.63,0.22c4.46-0.59,8.94-0.94,13.44-1.02
				c4.54-0.08,9.05,0.19,13.58,0.55c2.54,0.2,5.08,0.43,7.61,0.77c-0.5-0.07-1.01-0.14-1.51-0.2c2.19,0.3,4.39,0.63,6.55,1.08
				c0.96,0.26,1.92,0.26,2.88,0c0.92-0.26,1.72-0.72,2.39-1.39c0.05-0.07,0.1-0.13,0.16-0.2c-0.34,0.26-0.67,0.52-1.01,0.78
				c0.32-0.24,0.63-0.49,0.95-0.73c0.76-0.57,1.47-1.22,1.7-2.21C884.09,167.8,883.92,166.93,883.49,165.98z"/>
		</g>
	</g>
	<path class="st20" d="M985.02,708.27c0,0,74.53,191.28,65.85,201.59c-8.69,10.31-45.53-65.14-82.37-199.57"/>
	<path class="st20" d="M1157.32,804.29c0,0-84.26,153.77-279.68,101.95c0,0-8.36-2.73-13.02,6.32
		c-4.66,9.05,116.38,41.7,196.54-1.72c80.16-43.42,99.95-95.03,102.93-103.88C1167.08,798.11,1160.9,798.44,1157.32,804.29z"/>
</g>
</svg>
