<?xml version="1.0" standalone="no"?>
<!DOCTYPE svg PUBLIC "-//W3C//DTD SVG 20010904//EN"
 "http://www.w3.org/TR/2001/REC-SVG-20010904/DTD/svg10.dtd">
<svg version="1.0" xmlns="http://www.w3.org/2000/svg"
 width="753.000000pt" height="753.000000pt" viewBox="0 0 753.000000 753.000000"
 preserveAspectRatio="xMidYMid meet">
<metadata>
Created by potrace 1.11, written by Peter Selinger 2001-2013
</metadata>
<g transform="translate(0.000000,753.000000) scale(0.100000,-0.100000)"
fill="#000000" stroke="none">
<path d="M2587 6564 c-1 -1 -63 -4 -137 -8 -163 -7 -196 -11 -280 -38 -89 -28
-116 -43 -171 -95 -130 -121 -153 -306 -68 -554 41 -122 218 -445 250 -457 5
-2 9 -10 9 -18 0 -8 5 -14 10 -14 6 0 10 -4 10 -10 0 -5 18 -28 40 -52 22 -24
40 -46 40 -49 0 -13 216 -224 297 -289 143 -116 364 -250 538 -325 85 -37 102
-43 165 -65 36 -12 72 -25 80 -28 18 -7 17 -6 60 -17 19 -5 42 -9 50 -9 20 -1
18 -70 -6 -175 -7 -28 -60 -196 -71 -221 -3 -8 -5 -18 -5 -22 1 -5 -2 -8 -8
-8 -5 0 -10 -5 -10 -11 0 -33 -121 -234 -198 -329 -63 -77 -202 -211 -262
-252 -14 -10 -45 -32 -70 -49 -150 -106 -427 -213 -610 -234 -30 -4 -66 -9
-80 -11 -30 -5 -244 -5 -280 0 -61 9 -109 17 -155 26 -27 6 -59 12 -70 14 -95
19 -349 130 -430 189 -5 4 -39 28 -75 53 -79 57 -75 53 -182 159 -93 92 -188
220 -249 334 -44 82 -101 211 -92 211 3 0 1 6 -4 13 -11 13 -51 158 -60 211
-11 74 -22 184 -27 276 -5 109 -64 193 -159 229 -171 63 -340 -61 -339 -249 1
-113 15 -252 37 -370 19 -97 73 -280 105 -355 233 -544 624 -921 1171 -1129
52 -20 109 -39 125 -42 16 -2 43 -9 59 -14 39 -12 171 -39 215 -43 39 -5 34 9
70 -172 11 -55 22 -107 24 -115 94 -340 277 -651 531 -903 27 -26 135 -121
190 -166 20 -16 119 -82 200 -133 128 -80 403 -188 570 -223 164 -34 221 -40
430 -40 105 0 217 4 250 8 65 9 283 54 294 62 4 2 18 6 32 9 46 9 192 66 284
111 98 47 258 142 263 156 2 5 8 9 13 9 6 0 15 4 22 10 7 5 44 35 82 66 226
180 406 404 541 673 56 112 135 321 148 391 2 14 7 32 10 40 3 8 7 31 10 50 3
19 8 49 11 65 3 17 7 45 10 63 3 17 9 32 13 33 4 0 16 2 27 4 11 2 40 7 64 10
24 4 78 16 120 27 42 11 86 22 98 24 13 2 55 16 95 30 335 120 613 307 845
570 29 32 56 64 60 69 99 130 151 210 218 340 37 73 78 166 76 173 -1 1 5 15
13 31 14 26 72 211 80 255 21 113 29 158 33 196 2 25 6 59 8 75 10 75 6 234
-7 256 -51 94 -93 132 -168 155 -79 24 -186 -3 -243 -62 -24 -24 -58 -75 -62
-94 -9 -34 -15 -93 -20 -175 -3 -55 -7 -111 -9 -125 -57 -364 -252 -709 -524
-928 -26 -20 -49 -39 -52 -42 -13 -13 -130 -90 -170 -111 -25 -13 -48 -28 -51
-32 -3 -5 -9 -8 -12 -8 -4 0 -28 -9 -54 -21 -27 -11 -54 -21 -60 -21 -7 0 -13
-4 -13 -9 0 -4 -8 -8 -18 -8 -10 0 -22 -3 -26 -7 -3 -4 -12 -8 -19 -9 -7 -1
-43 -11 -82 -22 -38 -11 -89 -23 -113 -26 -24 -3 -47 -8 -51 -10 -11 -7 -145
-16 -241 -16 -95 0 -137 3 -225 19 -100 17 -117 21 -190 43 -38 12 -72 22 -75
23 -3 1 -16 6 -30 12 -14 6 -45 19 -70 29 -25 9 -49 21 -55 25 -5 4 -37 22
-70 40 -247 135 -466 365 -600 629 -46 92 -114 281 -121 337 -3 20 -6 39 -9
43 -2 3 -7 27 -10 52 l-6 45 78 23 c43 13 80 25 83 25 3 1 18 7 33 13 16 7 34
12 42 12 8 0 16 4 19 9 3 5 17 12 31 15 39 10 208 93 314 154 103 59 248 160
338 236 65 55 303 296 303 306 0 4 12 20 26 36 68 76 264 394 264 429 0 7 4
15 8 17 4 2 18 30 29 63 71 198 75 335 13 460 -60 121 -174 201 -330 230 -25
5 -621 10 -1325 11 -704 2 -1300 4 -1323 6 -24 2 -44 2 -45 2z m1243 -2931
c25 -40 48 -73 52 -73 5 0 8 -5 8 -11 0 -20 108 -146 211 -249 110 -109 131
-126 291 -243 20 -15 40 -27 44 -27 4 0 15 -6 23 -14 51 -45 379 -194 456
-207 6 -1 25 -8 43 -16 17 -7 32 -11 32 -9 0 3 17 -1 38 -8 20 -7 74 -19 120
-26 69 -12 82 -17 82 -33 0 -39 -53 -225 -87 -307 -3 -8 -7 -17 -8 -20 -41
-121 -185 -336 -311 -464 -75 -76 -195 -176 -212 -176 -6 0 -12 -4 -14 -9 -5
-13 -91 -64 -188 -112 -140 -68 -268 -106 -459 -138 -70 -11 -301 -12 -371 0
-130 21 -276 57 -325 79 -11 5 -48 21 -82 34 -219 90 -433 260 -606 481 -111
141 -244 449 -263 609 l-6 42 79 13 c68 11 230 52 273 68 8 3 20 7 25 8 67 16
319 138 415 201 52 33 144 100 179 129 164 137 232 208 358 375 40 52 78 106
85 120 7 14 15 27 18 30 3 3 11 17 19 32 16 32 10 39 81 -79z"/>
</g>
</svg>
